<svg width="24" height="24" viewBox="0 0 24 24" fill="none" xmlns="http://www.w3.org/2000/svg">
<g clip-path="url(#clip0_27686_3)">
<path d="M12 0C9.62663 0 7.30655 0.703788 5.33316 2.02236C3.35977 3.34094 1.8217 5.21509 0.913451 7.4078C0.00519941 9.60051 -0.232441 12.0133 0.230582 14.3411C0.693605 16.6689 1.83649 18.8071 3.51472 20.4853C5.19295 22.1635 7.33115 23.3064 9.65892 23.7694C11.9867 24.2324 14.3995 23.9948 16.5922 23.0866C18.7849 22.1783 20.6591 20.6402 21.9776 18.6668C23.2962 16.6935 24 14.3734 24 12C24 8.8174 22.7357 5.76516 20.4853 3.51472C18.2348 1.26428 15.1826 0 12 0ZM2.40001 12C2.40473 9.86925 3.11819 7.80063 4.42801 6.12L17.88 19.572C16.4617 20.671 14.7638 21.3505 12.9789 21.5335C11.194 21.7164 9.39354 21.3955 7.78177 20.6071C6.17001 19.8187 4.81145 18.5944 3.8602 17.0731C2.90895 15.5517 2.40309 13.7943 2.40001 12ZM19.572 17.88L6.12 4.428C7.96821 3.0233 10.2628 2.33588 12.5789 2.49304C14.895 2.65021 17.0757 3.6413 18.7172 5.28279C20.3587 6.92429 21.3498 9.10499 21.507 11.4211C21.6641 13.7372 20.9767 16.0318 19.572 17.88Z" fill="#94A3BD"/>
</g>
<defs>
<clipPath id="clip0_27686_3">
<rect width="24" height="24" fill="white"/>
</clipPath>
</defs>
</svg>
