<svg width="53" height="27" viewBox="0 0 53 27" fill="none" xmlns="http://www.w3.org/2000/svg">
<path d="M10.8 21.24C9.504 21.24 8.288 21 7.152 20.52C6.032 20.024 5.048 19.344 4.2 18.48C3.368 17.6 2.712 16.576 2.232 15.408C1.768 14.24 1.536 12.976 1.536 11.616C1.536 10.272 1.768 9.024 2.232 7.872C2.712 6.704 3.368 5.688 4.2 4.824C5.048 3.944 6.032 3.256 7.152 2.76C8.272 2.264 9.488 2.016 10.8 2.016C12.032 2.016 13.088 2.176 13.968 2.496C14.864 2.816 15.76 3.344 16.656 4.08C16.784 4.176 16.88 4.28 16.944 4.392C17.024 4.488 17.072 4.592 17.088 4.704C17.12 4.8 17.136 4.92 17.136 5.064C17.136 5.368 17.024 5.624 16.8 5.832C16.592 6.024 16.336 6.136 16.032 6.168C15.728 6.184 15.432 6.08 15.144 5.856C14.552 5.344 13.936 4.952 13.296 4.68C12.672 4.408 11.84 4.272 10.8 4.272C9.856 4.272 8.968 4.464 8.136 4.848C7.304 5.232 6.568 5.76 5.928 6.432C5.304 7.104 4.816 7.888 4.464 8.784C4.112 9.664 3.936 10.608 3.936 11.616C3.936 12.64 4.112 13.6 4.464 14.496C4.816 15.376 5.304 16.152 5.928 16.824C6.568 17.496 7.304 18.024 8.136 18.408C8.968 18.776 9.856 18.96 10.8 18.96C11.616 18.96 12.384 18.824 13.104 18.552C13.84 18.264 14.544 17.872 15.216 17.376C15.504 17.168 15.784 17.08 16.056 17.112C16.344 17.128 16.584 17.24 16.776 17.448C16.968 17.64 17.064 17.912 17.064 18.264C17.064 18.424 17.032 18.584 16.968 18.744C16.904 18.888 16.808 19.024 16.68 19.152C15.816 19.84 14.888 20.36 13.896 20.712C12.92 21.064 11.888 21.24 10.8 21.24Z" fill="white"/>
<path d="M19.648 21C19.296 21 19 20.88 18.76 20.64C18.52 20.4 18.4 20.104 18.4 19.752V3.504C18.4 3.136 18.52 2.84 18.76 2.616C19 2.376 19.296 2.256 19.648 2.256H23.968C25.168 2.256 26.232 2.512 27.16 3.024C28.088 3.52 28.808 4.208 29.32 5.088C29.848 5.968 30.112 6.992 30.112 8.16C30.112 9.248 29.848 10.216 29.32 11.064C28.808 11.912 28.088 12.576 27.16 13.056C26.232 13.536 25.168 13.776 23.968 13.776H20.896V19.752C20.896 20.104 20.776 20.4 20.536 20.64C20.312 20.88 20.016 21 19.648 21ZM29.608 21C29.384 21 29.176 20.952 28.984 20.856C28.808 20.76 28.656 20.608 28.528 20.4L24.208 13.44L26.632 12.744L30.568 19.08C30.856 19.544 30.896 19.984 30.688 20.4C30.48 20.8 30.12 21 29.608 21ZM20.896 11.472H23.968C24.704 11.472 25.352 11.336 25.912 11.064C26.472 10.776 26.912 10.384 27.232 9.888C27.552 9.376 27.712 8.8 27.712 8.16C27.712 7.456 27.552 6.832 27.232 6.288C26.912 5.744 26.472 5.32 25.912 5.016C25.352 4.712 24.704 4.56 23.968 4.56H20.896V11.472Z" fill="white"/>
<path d="M32.648 21C32.296 21 32 20.88 31.76 20.64C31.52 20.4 31.4 20.104 31.4 19.752V3.504C31.4 3.136 31.52 2.84 31.76 2.616C32 2.376 32.296 2.256 32.648 2.256C33.128 2.256 33.496 2.48 33.752 2.928L41.264 17.976H40.496L47.816 2.928C48.072 2.48 48.44 2.256 48.92 2.256C49.272 2.256 49.568 2.376 49.808 2.616C50.048 2.84 50.168 3.136 50.168 3.504V19.752C50.168 20.104 50.04 20.4 49.784 20.64C49.544 20.88 49.256 21 48.92 21C48.568 21 48.272 20.88 48.032 20.64C47.792 20.4 47.672 20.104 47.672 19.752V6.96L48.152 6.84L41.864 19.656C41.592 20.072 41.232 20.28 40.784 20.28C40.256 20.28 39.872 20.032 39.632 19.536L33.416 7.08L33.896 6.96V19.752C33.896 20.104 33.776 20.4 33.536 20.64C33.296 20.88 33 21 32.648 21Z" fill="white"/>
<rect x="31" y="5" width="2" height="13" rx="1" fill="#0062C0"/>
<rect x="18" y="5" width="2" height="13" rx="1" fill="#0062C0"/>
<path d="M2.81802 6.18198C2.93454 6.06546 3.09257 6 3.25736 6C3.76936 6 4.06161 6.58452 3.75442 6.99411L3 8C2.04201 9.27732 1.64851 10.8911 1.911 12.466L1.98074 12.8844C1.99355 12.9613 2.0134 13.0369 2.04003 13.1101L3.27505 16.5064C3.44713 16.9796 2.85605 17.3561 2.5 17C1.84565 16.3457 1.38144 15.5258 1.157 14.628L0.714534 12.8581C0.259448 11.0378 0.59338 9.10993 1.6342 7.5487L1.84865 7.22702C1.9493 7.07604 2.06462 6.93538 2.19293 6.80707L2.81802 6.18198Z" fill="#0062C0"/>
</svg>
